<?xml version="1.0" encoding="UTF-8" standalone="no"?>
<!-- Created with Inkscape (http://www.inkscape.org/) -->

<svg
   version="1.1"
   id="svg1"
   width="880"
   height="880"
   viewBox="0 0 880 880"
   sodipodi:docname="breaking-news-in-newspapers.svg"
   inkscape:version="1.3.2 (091e20e, 2023-11-25, custom)"
   xmlns:inkscape="http://www.inkscape.org/namespaces/inkscape"
   xmlns:sodipodi="http://sodipodi.sourceforge.net/DTD/sodipodi-0.dtd"
   xmlns="http://www.w3.org/2000/svg"
   xmlns:svg="http://www.w3.org/2000/svg">
  <defs
     id="defs1">
    <clipPath
       clipPathUnits="userSpaceOnUse"
       id="clipPath4">
      <path
         d="M 0,660 H 660 V 0 H 0 Z"
         transform="translate(-135.13671,-248.9824)"
         id="path4" />
    </clipPath>
    <clipPath
       clipPathUnits="userSpaceOnUse"
       id="clipPath6">
      <path
         d="M 0,660 H 660 V 0 H 0 Z"
         transform="translate(-524.18071,-469.73001)"
         id="path6" />
    </clipPath>
    <clipPath
       clipPathUnits="userSpaceOnUse"
       id="clipPath8">
      <path
         d="M 0,660 H 660 V 0 H 0 Z"
         transform="translate(-512.53522,-216.2227)"
         id="path8" />
    </clipPath>
    <clipPath
       clipPathUnits="userSpaceOnUse"
       id="clipPath10">
      <path
         d="M 0,660 H 660 V 0 H 0 Z"
         transform="translate(-121.10301,-459.49711)"
         id="path10" />
    </clipPath>
    <clipPath
       clipPathUnits="userSpaceOnUse"
       id="clipPath12">
      <path
         d="M 0,660 H 660 V 0 H 0 Z"
         transform="translate(-467.85251,-408.91801)"
         id="path12" />
    </clipPath>
    <clipPath
       clipPathUnits="userSpaceOnUse"
       id="clipPath14">
      <path
         d="M 0,660 H 660 V 0 H 0 Z"
         id="path14" />
    </clipPath>
    <clipPath
       clipPathUnits="userSpaceOnUse"
       id="clipPath16">
      <path
         d="M 0,660 H 660 V 0 H 0 Z"
         id="path16" />
    </clipPath>
    <clipPath
       clipPathUnits="userSpaceOnUse"
       id="clipPath18">
      <path
         d="M 0,660 H 660 V 0 H 0 Z"
         id="path18" />
    </clipPath>
    <clipPath
       clipPathUnits="userSpaceOnUse"
       id="clipPath20">
      <path
         d="M 0,660 H 660 V 0 H 0 Z"
         id="path20" />
    </clipPath>
    <clipPath
       clipPathUnits="userSpaceOnUse"
       id="clipPath22">
      <path
         d="M 0,660 H 660 V 0 H 0 Z"
         id="path22" />
    </clipPath>
    <clipPath
       clipPathUnits="userSpaceOnUse"
       id="clipPath24">
      <path
         d="M 0,660 H 660 V 0 H 0 Z"
         id="path24" />
    </clipPath>
    <clipPath
       clipPathUnits="userSpaceOnUse"
       id="clipPath26">
      <path
         d="M 0,660 H 660 V 0 H 0 Z"
         id="path26" />
    </clipPath>
    <clipPath
       clipPathUnits="userSpaceOnUse"
       id="clipPath28">
      <path
         d="M 0,660 H 660 V 0 H 0 Z"
         id="path28" />
    </clipPath>
    <clipPath
       clipPathUnits="userSpaceOnUse"
       id="clipPath30">
      <path
         d="M 0,660 H 660 V 0 H 0 Z"
         id="path30" />
    </clipPath>
    <clipPath
       clipPathUnits="userSpaceOnUse"
       id="clipPath32">
      <path
         d="M 0,660 H 660 V 0 H 0 Z"
         id="path32" />
    </clipPath>
    <clipPath
       clipPathUnits="userSpaceOnUse"
       id="clipPath34">
      <path
         d="M 0,660 H 660 V 0 H 0 Z"
         id="path34" />
    </clipPath>
    <clipPath
       clipPathUnits="userSpaceOnUse"
       id="clipPath36">
      <path
         d="M 0,660 H 660 V 0 H 0 Z"
         id="path36" />
    </clipPath>
    <clipPath
       clipPathUnits="userSpaceOnUse"
       id="clipPath38">
      <path
         d="M 0,660 H 660 V 0 H 0 Z"
         id="path38" />
    </clipPath>
    <clipPath
       clipPathUnits="userSpaceOnUse"
       id="clipPath40">
      <path
         d="M 0,660 H 660 V 0 H 0 Z"
         id="path40" />
    </clipPath>
    <clipPath
       clipPathUnits="userSpaceOnUse"
       id="clipPath42">
      <path
         d="M 0,660 H 660 V 0 H 0 Z"
         id="path42" />
    </clipPath>
    <clipPath
       clipPathUnits="userSpaceOnUse"
       id="clipPath44">
      <path
         d="M 0,660 H 660 V 0 H 0 Z"
         id="path44" />
    </clipPath>
    <clipPath
       clipPathUnits="userSpaceOnUse"
       id="clipPath46">
      <path
         d="M 0,660 H 660 V 0 H 0 Z"
         id="path46" />
    </clipPath>
    <clipPath
       clipPathUnits="userSpaceOnUse"
       id="clipPath48">
      <path
         d="M 0,660 H 660 V 0 H 0 Z"
         id="path48" />
    </clipPath>
    <clipPath
       clipPathUnits="userSpaceOnUse"
       id="clipPath50">
      <path
         d="M 0,660 H 660 V 0 H 0 Z"
         id="path50" />
    </clipPath>
    <clipPath
       clipPathUnits="userSpaceOnUse"
       id="clipPath52">
      <path
         d="M 0,660 H 660 V 0 H 0 Z"
         id="path52" />
    </clipPath>
    <clipPath
       clipPathUnits="userSpaceOnUse"
       id="clipPath54">
      <path
         d="M 0,660 H 660 V 0 H 0 Z"
         id="path54" />
    </clipPath>
    <clipPath
       clipPathUnits="userSpaceOnUse"
       id="clipPath56">
      <path
         d="M 0,660 H 660 V 0 H 0 Z"
         id="path56" />
    </clipPath>
    <clipPath
       clipPathUnits="userSpaceOnUse"
       id="clipPath58">
      <path
         d="M 0,660 H 660 V 0 H 0 Z"
         id="path58" />
    </clipPath>
    <clipPath
       clipPathUnits="userSpaceOnUse"
       id="clipPath60">
      <path
         d="M 0,660 H 660 V 0 H 0 Z"
         id="path60" />
    </clipPath>
    <clipPath
       clipPathUnits="userSpaceOnUse"
       id="clipPath62">
      <path
         d="M 0,660 H 660 V 0 H 0 Z"
         id="path62" />
    </clipPath>
    <clipPath
       clipPathUnits="userSpaceOnUse"
       id="clipPath64">
      <path
         d="M 0,660 H 660 V 0 H 0 Z"
         id="path64" />
    </clipPath>
    <clipPath
       clipPathUnits="userSpaceOnUse"
       id="clipPath66">
      <path
         d="M 0,660 H 660 V 0 H 0 Z"
         id="path66" />
    </clipPath>
    <clipPath
       clipPathUnits="userSpaceOnUse"
       id="clipPath68">
      <path
         d="M 0,660 H 660 V 0 H 0 Z"
         id="path68" />
    </clipPath>
    <clipPath
       clipPathUnits="userSpaceOnUse"
       id="clipPath70">
      <path
         d="M 0,660 H 660 V 0 H 0 Z"
         id="path70" />
    </clipPath>
    <clipPath
       clipPathUnits="userSpaceOnUse"
       id="clipPath72">
      <path
         d="M 0,660 H 660 V 0 H 0 Z"
         id="path72" />
    </clipPath>
    <clipPath
       clipPathUnits="userSpaceOnUse"
       id="clipPath74">
      <path
         d="M 0,660 H 660 V 0 H 0 Z"
         id="path74" />
    </clipPath>
    <clipPath
       clipPathUnits="userSpaceOnUse"
       id="clipPath76">
      <path
         d="M 0,660 H 660 V 0 H 0 Z"
         id="path76" />
    </clipPath>
    <clipPath
       clipPathUnits="userSpaceOnUse"
       id="clipPath78">
      <path
         d="M 0,660 H 660 V 0 H 0 Z"
         id="path78" />
    </clipPath>
    <clipPath
       clipPathUnits="userSpaceOnUse"
       id="clipPath80">
      <path
         d="M 0,660 H 660 V 0 H 0 Z"
         id="path80" />
    </clipPath>
    <clipPath
       clipPathUnits="userSpaceOnUse"
       id="clipPath82">
      <path
         d="M 0,660 H 660 V 0 H 0 Z"
         id="path82" />
    </clipPath>
    <clipPath
       clipPathUnits="userSpaceOnUse"
       id="clipPath84">
      <path
         d="M 0,660 H 660 V 0 H 0 Z"
         id="path84" />
    </clipPath>
    <clipPath
       clipPathUnits="userSpaceOnUse"
       id="clipPath86">
      <path
         d="M 0,660 H 660 V 0 H 0 Z"
         id="path86" />
    </clipPath>
    <clipPath
       clipPathUnits="userSpaceOnUse"
       id="clipPath88">
      <path
         d="M 0,660 H 660 V 0 H 0 Z"
         id="path88" />
    </clipPath>
  </defs>
  <sodipodi:namedview
     id="namedview1"
     pagecolor="#ffffff"
     bordercolor="#000000"
     borderopacity="0.25"
     inkscape:showpageshadow="2"
     inkscape:pageopacity="0.0"
     inkscape:pagecheckerboard="0"
     inkscape:deskcolor="#d1d1d1"
     inkscape:zoom="0.69318182"
     inkscape:cx="439.27869"
     inkscape:cy="440"
     inkscape:window-width="1440"
     inkscape:window-height="830"
     inkscape:window-x="-6"
     inkscape:window-y="-6"
     inkscape:window-maximized="1"
     inkscape:current-layer="g1">
    <inkscape:page
       x="0"
       y="0"
       inkscape:label="1"
       id="page1"
       width="880"
       height="880"
       margin="0"
       bleed="0" />
  </sodipodi:namedview>
  <g
     id="g1"
     inkscape:groupmode="layer"
     inkscape:label="1">
    <g
       id="group-MC0">
      <path
         id="path2"
         d="M 0,0 H 660 V 660 H 0 Z"
         style="fill:#313033;fill-opacity:1;fill-rule:nonzero;stroke:none"
         transform="matrix(1.3333333,0,0,-1.3333333,0,880)" />
      <path
         id="path3"
         d="m 0,0 387.287,-69.329 36.282,206.686 c 2.68,15.276 14.978,63.082 2.355,65.344 L 56.32,268.928 C 43.699,271.189 38.963,221.964 36.281,206.686 Z"
         style="fill:#848389;fill-opacity:1;fill-rule:evenodd;stroke:none"
         transform="matrix(1.3333333,0,0,-1.3333333,180.18227,548.02347)"
         clip-path="url(#clipPath4)" />
      <path
         id="path5"
         d="m 0,0 -390.621,16.739 -10.249,-209.627 c -0.758,-15.494 -7.268,-64.525 6.415,-65.111 l 371.465,-15.918 c 13.681,-0.586 11.983,48.794 12.741,64.29 z"
         style="fill:#a09ea5;fill-opacity:1;fill-rule:evenodd;stroke:none"
         transform="matrix(1.3333333,0,0,-1.3333333,698.9076,253.69333)"
         clip-path="url(#clipPath6)" />
      <path
         id="path7"
         d="M 0,0 -391.039,-43.432 -413.5,165.21 c -1.659,15.421 -10.752,63.939 1.993,65.357 l 373.189,41.509 c 12.744,1.418 14.198,-48.013 15.856,-63.435 z"
         style="fill:#bcbac2;fill-opacity:1;fill-rule:evenodd;stroke:none"
         transform="matrix(1.3333333,0,0,-1.3333333,683.38027,591.70307)"
         clip-path="url(#clipPath8)" />
      <path
         id="path9"
         d="m 0,0 h 408.426 v -234.125 c 0,-17.305 4.292,-72.262 -10.014,-72.262 H 10.015 C -4.292,-306.387 0,-251.431 0,-234.125 Z"
         style="fill:#eceaf2;fill-opacity:1;fill-rule:evenodd;stroke:none"
         transform="matrix(1.3333333,0,0,-1.3333333,161.47067,267.3372)"
         clip-path="url(#clipPath10)" />
      <path
         id="path11"
         d="m 0,0 c 6.601,0 10.41,3.613 10.41,7.765 0,3.536 -2.116,5.574 -5.459,6.804 l -3.554,1.307 c -2.372,0.884 -4.192,1.422 -4.192,2.96 0,1.422 1.355,2.267 3.513,2.267 2.201,0 3.894,-0.73 5.714,-1.999 l 3.174,3.575 c -2.37,2.153 -5.711,3.306 -8.888,3.306 -5.755,0 -9.818,-3.306 -9.818,-7.457 0,-3.652 2.708,-5.804 5.545,-6.843 L 0.042,10.302 C 2.454,9.379 4.021,8.88 4.021,7.304 c 0,-1.5 -1.27,-2.422 -3.852,-2.422 -2.285,0 -4.825,1.076 -6.813,2.614 L -10.199,3.613 C -7.406,1.23 -3.597,0 0,0 m -40.374,0.461 h 7.701 l 2.582,11.378 c 0.466,1.923 0.805,3.959 1.144,5.805 h 0.169 c 0.297,-1.846 0.634,-3.882 1.098,-5.805 l 2.711,-11.378 h 7.828 l 4.91,25.063 h -5.967 L -20.101,13.8 c -0.382,-2.575 -0.763,-5.228 -1.144,-7.919 h -0.169 c -0.552,2.691 -1.102,5.382 -1.651,7.919 l -2.963,11.724 h -5.29 L -34.279,13.8 c -0.552,-2.614 -1.102,-5.266 -1.652,-7.919 h -0.168 c -0.339,2.653 -0.762,5.305 -1.101,7.919 l -1.904,11.724 h -6.392 z m -25.647,0 h 17.69 v 4.766 h -11.47 v 5.767 h 9.398 v 4.728 h -9.398 v 5.035 h 11.047 v 4.767 h -17.267 z m -28.143,0 h 5.925 v 8.88 c 0,2.96 -0.508,6.304 -0.762,9.072 h 0.17 l 2.708,-5.459 7.194,-12.493 h 6.391 v 25.063 h -5.926 v -8.841 c 0,-2.96 0.509,-6.497 0.763,-9.149 h -0.169 l -2.709,5.536 -7.194,12.454 h -6.391 z M -117.44,0 c 3.851,0 7.195,1.345 9.098,3.036 v 11.533 h -10.072 V 9.955 h 4.571 V 5.65 c -0.676,-0.5 -1.82,-0.768 -2.963,-0.768 -5.163,0 -7.745,2.998 -7.745,8.149 0,5.035 3.006,8.072 7.28,8.072 2.371,0 3.809,-0.883 5.206,-1.999 l 3.258,3.614 c -1.82,1.691 -4.698,3.267 -8.674,3.267 -7.366,0 -13.459,-4.843 -13.459,-13.146 0,-8.419 5.925,-12.839 13.5,-12.839 m -40.332,0.461 h 5.925 v 8.88 c 0,2.96 -0.508,6.304 -0.761,9.072 h 0.169 l 2.708,-5.459 7.195,-12.493 h 6.39 v 25.063 h -5.926 v -8.841 c 0,-2.96 0.509,-6.497 0.763,-9.149 h -0.168 l -2.709,5.536 -7.195,12.454 h -6.391 z m -12.738,0 h 6.221 v 25.062 h -6.221 z m -25.986,0 h 6.222 v 6.727 l 3.217,3.845 6.728,-10.572 h 6.814 l -9.861,15.069 8.338,9.994 h -6.856 l -8.21,-10.263 h -0.17 v 10.263 h -6.222 z m -27.761,0 h 6.347 l 1.694,5.958 h 8.422 l 1.693,-5.958 h 6.6 l -8.632,25.063 h -7.491 z m 9.988,12.685 c 0.761,2.499 1.481,5.42 2.157,8.073 h 0.17 c 0.719,-2.614 1.482,-5.574 2.243,-8.073 l 0.635,-2.306 h -5.882 z M -243.935,0.461 h 17.688 v 4.766 h -11.469 v 5.767 h 9.397 v 4.728 h -9.397 v 5.035 h 11.047 v 4.767 h -17.266 z m -19.723,13.531 v 7.035 h 3.216 c 3.259,0 5.037,-0.846 5.037,-3.306 0,-2.46 -1.778,-3.729 -5.037,-3.729 z m -6.221,-13.531 h 6.221 v 9.034 h 3.428 l 5.291,-9.034 h 6.982 l -6.262,10.033 c 2.961,1.191 4.908,3.536 4.908,7.227 0,5.958 -4.782,7.803 -10.623,7.803 h -9.945 z m -19.383,4.383 v 6.457 h 3.513 c 3.428,0 5.121,-0.884 5.121,-3.075 0,-2.307 -1.736,-3.382 -5.121,-3.382 z m 0,10.647 v 5.651 h 2.963 c 2.92,0 4.316,-0.73 4.316,-2.691 0,-1.806 -1.311,-2.96 -4.358,-2.96 z m -6.221,-15.03 h 10.241 c 5.968,0 10.708,2.268 10.708,7.38 0,3.345 -2.159,5.229 -4.952,5.882 v 0.153 c 2.244,0.769 3.598,3.191 3.598,5.421 0,4.805 -4.444,6.227 -10.157,6.227 h -9.438 z"
         style="fill:#a09ea5;fill-opacity:1;fill-rule:evenodd;stroke:none"
         transform="matrix(1.3333333,0,0,-1.3333333,623.80333,334.776)"
         clip-path="url(#clipPath12)" />
      <path
         id="path13"
         d="m 146.684,395.306 h 357.804 v 2.874 H 146.684 Z"
         style="fill:#69676c;fill-opacity:1;fill-rule:evenodd;stroke:none"
         transform="matrix(1.3333333,0,0,-1.3333333,0,880)"
         clip-path="url(#clipPath14)" />
      <path
         id="path15"
         d="m 146.684,391.712 h 357.804 v 1.437 H 146.684 Z"
         style="fill:#69676c;fill-opacity:1;fill-rule:evenodd;stroke:none"
         transform="matrix(1.3333333,0,0,-1.3333333,0,880)"
         clip-path="url(#clipPath16)" />
      <path
         id="path17"
         d="M 146.684,376.309 H 251.223 V 270.332 H 146.684 Z"
         style="fill:#a09ea5;fill-opacity:1;fill-rule:evenodd;stroke:none"
         transform="matrix(1.3333333,0,0,-1.3333333,0,880)"
         clip-path="url(#clipPath18)" />
      <path
         id="path19"
         d="m 146.684,248.24 h 104.539 v 7.363 H 146.684 Z"
         style="fill:#bcbac2;fill-opacity:1;fill-rule:evenodd;stroke:none"
         transform="matrix(1.3333333,0,0,-1.3333333,0,880)"
         clip-path="url(#clipPath20)" />
      <path
         id="path21"
         d="m 146.684,242.191 h 104.539 v -7.364 H 146.684 Z"
         style="fill:#bcbac2;fill-opacity:1;fill-rule:evenodd;stroke:none"
         transform="matrix(1.3333333,0,0,-1.3333333,0,880)"
         clip-path="url(#clipPath22)" />
      <path
         id="path23"
         d="m 146.684,228.778 h 104.539 v -7.363 H 146.684 Z"
         style="fill:#bcbac2;fill-opacity:1;fill-rule:evenodd;stroke:none"
         transform="matrix(1.3333333,0,0,-1.3333333,0,880)"
         clip-path="url(#clipPath24)" />
      <path
         id="path25"
         d="m 146.684,215.365 h 104.539 v -7.363 H 146.684 Z"
         style="fill:#bcbac2;fill-opacity:1;fill-rule:evenodd;stroke:none"
         transform="matrix(1.3333333,0,0,-1.3333333,0,880)"
         clip-path="url(#clipPath26)" />
      <path
         id="path27"
         d="m 146.684,201.952 h 104.539 v -7.363 H 146.684 Z"
         style="fill:#bcbac2;fill-opacity:1;fill-rule:evenodd;stroke:none"
         transform="matrix(1.3333333,0,0,-1.3333333,0,880)"
         clip-path="url(#clipPath28)" />
      <path
         id="path29"
         d="m 146.684,181.176 h 104.539 v 7.365 H 146.684 Z"
         style="fill:#bcbac2;fill-opacity:1;fill-rule:evenodd;stroke:none"
         transform="matrix(1.3333333,0,0,-1.3333333,0,880)"
         clip-path="url(#clipPath30)" />
      <path
         id="path31"
         d="m 273.316,368.944 h 104.54 v 7.364 h -104.54 z"
         style="fill:#bcbac2;fill-opacity:1;fill-rule:evenodd;stroke:none"
         transform="matrix(1.3333333,0,0,-1.3333333,0,880)"
         clip-path="url(#clipPath32)" />
      <path
         id="path33"
         d="m 273.316,362.895 h 104.54 v -7.363 h -104.54 z"
         style="fill:#bcbac2;fill-opacity:1;fill-rule:evenodd;stroke:none"
         transform="matrix(1.3333333,0,0,-1.3333333,0,880)"
         clip-path="url(#clipPath34)" />
      <path
         id="path35"
         d="m 273.316,349.484 h 104.54 v -7.364 h -104.54 z"
         style="fill:#bcbac2;fill-opacity:1;fill-rule:evenodd;stroke:none"
         transform="matrix(1.3333333,0,0,-1.3333333,0,880)"
         clip-path="url(#clipPath36)" />
      <path
         id="path37"
         d="m 273.316,336.072 h 104.54 v -7.364 h -104.54 z"
         style="fill:#bcbac2;fill-opacity:1;fill-rule:evenodd;stroke:none"
         transform="matrix(1.3333333,0,0,-1.3333333,0,880)"
         clip-path="url(#clipPath38)" />
      <path
         id="path39"
         d="m 273.316,322.66 h 104.54 v -7.363 h -104.54 z"
         style="fill:#bcbac2;fill-opacity:1;fill-rule:evenodd;stroke:none"
         transform="matrix(1.3333333,0,0,-1.3333333,0,880)"
         clip-path="url(#clipPath40)" />
      <path
         id="path41"
         d="m 273.316,309.248 h 104.54 v -7.363 h -104.54 z"
         style="fill:#bcbac2;fill-opacity:1;fill-rule:evenodd;stroke:none"
         transform="matrix(1.3333333,0,0,-1.3333333,0,880)"
         clip-path="url(#clipPath42)" />
      <path
         id="path43"
         d="m 273.316,295.835 h 104.54 v -7.363 h -104.54 z"
         style="fill:#bcbac2;fill-opacity:1;fill-rule:evenodd;stroke:none"
         transform="matrix(1.3333333,0,0,-1.3333333,0,880)"
         clip-path="url(#clipPath44)" />
      <path
         id="path45"
         d="m 273.316,282.425 h 104.54 v -7.365 h -104.54 z"
         style="fill:#bcbac2;fill-opacity:1;fill-rule:evenodd;stroke:none"
         transform="matrix(1.3333333,0,0,-1.3333333,0,880)"
         clip-path="url(#clipPath46)" />
      <path
         id="path47"
         d="m 273.316,269.013 h 104.54 v -7.363 h -104.54 z"
         style="fill:#bcbac2;fill-opacity:1;fill-rule:evenodd;stroke:none"
         transform="matrix(1.3333333,0,0,-1.3333333,0,880)"
         clip-path="url(#clipPath48)" />
      <path
         id="path49"
         d="m 273.316,255.602 h 104.54 v -7.365 h -104.54 z"
         style="fill:#bcbac2;fill-opacity:1;fill-rule:evenodd;stroke:none"
         transform="matrix(1.3333333,0,0,-1.3333333,0,880)"
         clip-path="url(#clipPath50)" />
      <path
         id="path51"
         d="m 273.316,242.188 h 104.54 v -7.364 h -104.54 z"
         style="fill:#bcbac2;fill-opacity:1;fill-rule:evenodd;stroke:none"
         transform="matrix(1.3333333,0,0,-1.3333333,0,880)"
         clip-path="url(#clipPath52)" />
      <path
         id="path53"
         d="m 273.316,228.776 h 104.54 v -7.364 h -104.54 z"
         style="fill:#bcbac2;fill-opacity:1;fill-rule:evenodd;stroke:none"
         transform="matrix(1.3333333,0,0,-1.3333333,0,880)"
         clip-path="url(#clipPath54)" />
      <path
         id="path55"
         d="m 273.316,215.364 h 104.54 v -7.363 h -104.54 z"
         style="fill:#bcbac2;fill-opacity:1;fill-rule:evenodd;stroke:none"
         transform="matrix(1.3333333,0,0,-1.3333333,0,880)"
         clip-path="url(#clipPath56)" />
      <path
         id="path57"
         d="m 273.316,201.952 h 104.54 v -7.364 h -104.54 z"
         style="fill:#bcbac2;fill-opacity:1;fill-rule:evenodd;stroke:none"
         transform="matrix(1.3333333,0,0,-1.3333333,0,880)"
         clip-path="url(#clipPath58)" />
      <path
         id="path59"
         d="m 273.316,181.176 h 104.54 v 7.365 h -104.54 z"
         style="fill:#bcbac2;fill-opacity:1;fill-rule:evenodd;stroke:none"
         transform="matrix(1.3333333,0,0,-1.3333333,0,880)"
         clip-path="url(#clipPath60)" />
      <path
         id="path61"
         d="m 399.948,368.944 h 104.539 v 7.364 H 399.948 Z"
         style="fill:#bcbac2;fill-opacity:1;fill-rule:evenodd;stroke:none"
         transform="matrix(1.3333333,0,0,-1.3333333,0,880)"
         clip-path="url(#clipPath62)" />
      <path
         id="path63"
         d="m 399.948,362.895 h 104.539 v -7.363 H 399.948 Z"
         style="fill:#bcbac2;fill-opacity:1;fill-rule:evenodd;stroke:none"
         transform="matrix(1.3333333,0,0,-1.3333333,0,880)"
         clip-path="url(#clipPath64)" />
      <path
         id="path65"
         d="M 399.948,349.484 H 504.487 V 342.12 H 399.948 Z"
         style="fill:#bcbac2;fill-opacity:1;fill-rule:evenodd;stroke:none"
         transform="matrix(1.3333333,0,0,-1.3333333,0,880)"
         clip-path="url(#clipPath66)" />
      <path
         id="path67"
         d="m 399.948,336.072 h 104.539 v -7.364 H 399.948 Z"
         style="fill:#bcbac2;fill-opacity:1;fill-rule:evenodd;stroke:none"
         transform="matrix(1.3333333,0,0,-1.3333333,0,880)"
         clip-path="url(#clipPath68)" />
      <path
         id="path69"
         d="m 399.948,322.66 h 104.539 v -7.363 H 399.948 Z"
         style="fill:#bcbac2;fill-opacity:1;fill-rule:evenodd;stroke:none"
         transform="matrix(1.3333333,0,0,-1.3333333,0,880)"
         clip-path="url(#clipPath70)" />
      <path
         id="path71"
         d="m 399.948,309.248 h 104.539 v -7.363 H 399.948 Z"
         style="fill:#bcbac2;fill-opacity:1;fill-rule:evenodd;stroke:none"
         transform="matrix(1.3333333,0,0,-1.3333333,0,880)"
         clip-path="url(#clipPath72)" />
      <path
         id="path73"
         d="m 427.425,282.425 h 49.584 v -7.365 h -49.584 z"
         style="fill:#bcbac2;fill-opacity:1;fill-rule:evenodd;stroke:none"
         transform="matrix(1.3333333,0,0,-1.3333333,0,880)"
         clip-path="url(#clipPath74)" />
      <path
         id="path75"
         d="M 399.948,269.013 H 504.487 V 261.65 H 399.948 Z"
         style="fill:#bcbac2;fill-opacity:1;fill-rule:evenodd;stroke:none"
         transform="matrix(1.3333333,0,0,-1.3333333,0,880)"
         clip-path="url(#clipPath76)" />
      <path
         id="path77"
         d="m 399.948,255.602 h 104.539 v -7.365 H 399.948 Z"
         style="fill:#bcbac2;fill-opacity:1;fill-rule:evenodd;stroke:none"
         transform="matrix(1.3333333,0,0,-1.3333333,0,880)"
         clip-path="url(#clipPath78)" />
      <path
         id="path79"
         d="m 399.948,242.188 h 104.539 v -7.364 H 399.948 Z"
         style="fill:#bcbac2;fill-opacity:1;fill-rule:evenodd;stroke:none"
         transform="matrix(1.3333333,0,0,-1.3333333,0,880)"
         clip-path="url(#clipPath80)" />
      <path
         id="path81"
         d="m 399.948,228.776 h 104.539 v -7.364 H 399.948 Z"
         style="fill:#bcbac2;fill-opacity:1;fill-rule:evenodd;stroke:none"
         transform="matrix(1.3333333,0,0,-1.3333333,0,880)"
         clip-path="url(#clipPath82)" />
      <path
         id="path83"
         d="m 399.948,215.364 h 104.539 v -7.363 H 399.948 Z"
         style="fill:#bcbac2;fill-opacity:1;fill-rule:evenodd;stroke:none"
         transform="matrix(1.3333333,0,0,-1.3333333,0,880)"
         clip-path="url(#clipPath84)" />
      <path
         id="path85"
         d="m 399.948,201.952 h 104.539 v -7.364 H 399.948 Z"
         style="fill:#bcbac2;fill-opacity:1;fill-rule:evenodd;stroke:none"
         transform="matrix(1.3333333,0,0,-1.3333333,0,880)"
         clip-path="url(#clipPath86)" />
      <path
         id="path87"
         d="m 399.948,181.176 h 104.539 v 7.365 H 399.948 Z"
         style="fill:#bcbac2;fill-opacity:1;fill-rule:evenodd;stroke:none"
         transform="matrix(1.3333333,0,0,-1.3333333,0,880)"
         clip-path="url(#clipPath88)" />
    </g>
  </g>
</svg>
